<svg width="24" height="24" viewBox="0 0 24 24" fill="none" xmlns="http://www.w3.org/2000/svg">
<path d="M12.75 7.49997V11.5753L16.1362 13.6068C16.3068 13.7093 16.4297 13.8753 16.4778 14.0683C16.526 14.2614 16.4955 14.4657 16.3931 14.6362C16.2906 14.8068 16.1246 14.9297 15.9316 14.9778C15.7385 15.026 15.5343 14.9955 15.3637 14.8931L11.6137 12.6431C11.5027 12.5764 11.4109 12.4821 11.3471 12.3694C11.2834 12.2567 11.2499 12.1294 11.25 12V7.49997C11.25 7.30106 11.329 7.11029 11.4696 6.96964C11.6103 6.82899 11.801 6.74997 12 6.74997C12.1989 6.74997 12.3896 6.82899 12.5303 6.96964C12.6709 7.11029 12.75 7.30106 12.75 7.49997ZM21 5.24997C20.801 5.24997 20.6103 5.32899 20.4696 5.46964C20.329 5.61029 20.25 5.80106 20.25 5.99997V7.68747C19.6546 6.99747 19.0471 6.33278 18.3637 5.64091C17.1129 4.39001 15.5213 3.53543 13.7876 3.18396C12.0539 2.83249 10.2551 2.99971 8.61594 3.66472C6.97676 4.32974 5.56989 5.46306 4.57114 6.92307C3.57239 8.38309 3.02603 10.1051 3.00034 11.8738C2.97465 13.6426 3.47076 15.3797 4.42669 16.8681C5.38263 18.3565 6.75598 19.5302 8.37516 20.2425C9.99433 20.9549 11.7875 21.1743 13.5307 20.8733C15.2738 20.5723 16.8896 19.7643 18.1762 18.5503C18.2479 18.4826 18.3055 18.4014 18.3458 18.3114C18.386 18.2214 18.4082 18.1244 18.411 18.0259C18.4138 17.9273 18.3971 17.8292 18.362 17.7371C18.3269 17.645 18.2739 17.5607 18.2062 17.489C18.1385 17.4174 18.0573 17.3598 17.9673 17.3195C17.8774 17.2792 17.7803 17.257 17.6818 17.2542C17.5832 17.2515 17.4851 17.2681 17.393 17.3032C17.3009 17.3384 17.2166 17.3913 17.145 17.459C16.0725 18.4697 14.726 19.1421 13.2738 19.3921C11.8215 19.6422 10.3277 19.4589 8.97896 18.865C7.63024 18.2712 6.48634 17.2932 5.69012 16.0532C4.8939 14.8131 4.48063 13.366 4.50193 11.8925C4.52323 10.419 4.97816 8.98439 5.80989 7.76788C6.64163 6.55138 7.81332 5.60685 9.17864 5.05226C10.544 4.49767 12.0424 4.3576 13.4869 4.64952C14.9313 4.94145 16.2578 5.65245 17.3006 6.69372C18.0637 7.46622 18.7321 8.2106 19.4062 8.99997H17.25C17.051 8.99997 16.8603 9.07899 16.7196 9.21964C16.579 9.36029 16.5 9.55106 16.5 9.74997C16.5 9.94888 16.579 10.1396 16.7196 10.2803C16.8603 10.421 17.051 10.5 17.25 10.5H21C21.1989 10.5 21.3896 10.421 21.5303 10.2803C21.6709 10.1396 21.75 9.94888 21.75 9.74997V5.99997C21.75 5.80106 21.6709 5.61029 21.5303 5.46964C21.3896 5.32899 21.1989 5.24997 21 5.24997Z" fill="#8F6730"/>
</svg>
